<svg xmlns="http://www.w3.org/2000/svg" width="32" height="32" viewBox="0 0 32 32" fill="none">
  <path
        d="M9.09 4H29V3C29 2.46957 28.7893 1.96086 28.4142 1.58579C28.0391 1.21071 27.5304 1 27 1H9C7.4087 1 5.88258 1.63214 4.75736 2.75736C3.63214 3.88258 3 5.4087 3 7V25C3 26.5913 3.63214 28.1174 4.75736 29.2426C5.88258 30.3679 7.4087 31 9 31H27C27.5304 31 28.0391 30.7893 28.4142 30.4142C28.7893 30.0391 29 29.5304 29 29V10C29 9.46957 28.7893 8.96086 28.4142 8.58579C28.0391 8.21071 27.5304 8 27 8H9.09C8.81988 8.01217 8.5501 7.96944 8.29697 7.87439C8.04383 7.77934 7.8126 7.63395 7.61724 7.44701C7.42188 7.26007 7.26646 7.03545 7.16037 6.78674C7.05428 6.53803 6.99973 6.27039 7 6C6.99973 5.72961 7.05428 5.46197 7.16037 5.21326C7.26646 4.96455 7.42188 4.73993 7.61724 4.55299C7.8126 4.36605 8.04383 4.22066 8.29697 4.12561C8.5501 4.03056 8.81988 3.98783 9.09 4ZM13.64 13.59C14.3601 13.5895 15.064 13.8032 15.6623 14.2038C16.2606 14.6045 16.7263 15.174 17 15.84C17.2737 15.174 17.7394 14.6045 18.3377 14.2038C18.936 13.8032 19.6399 13.5895 20.36 13.59C21.3573 13.6801 22.2845 14.141 22.9585 14.8816C23.6324 15.6222 24.0041 16.5887 24 17.59C24 21.98 18 25.59 17 25.59C16 25.59 10 22.01 10 17.59C9.99594 16.5887 10.3676 15.6222 11.0415 14.8816C11.7155 14.141 12.6427 13.6801 13.64 13.59Z"
        fill="#2C7FFF"
    />
</svg>
